<svg width="333" height="260" viewBox="0 0 333 260" fill="none" xmlns="http://www.w3.org/2000/svg">
<g filter="url(#filter0_ddd_543_481)">
<rect x="24" y="8" width="285" height="194" rx="28" fill="white"/>
</g>
<path d="M54.1777 40.837V30.4809H54.2L58.888 36.65L63.487 30.4809H63.5093V40.837H61.9057V37.0843C61.9057 36.7651 61.9095 36.4162 61.9169 36.0376C61.9317 35.6515 61.9651 35.2098 62.0171 34.7124C61.787 35.1133 61.5643 35.4622 61.349 35.7592C61.1337 36.0487 60.937 36.3197 60.7588 36.5721L58.8546 39.2001L56.8836 36.5721C56.7055 36.3271 56.505 36.0487 56.2823 35.7369C56.0596 35.4251 55.8369 35.0799 55.6142 34.7013C55.6661 35.1987 55.6958 35.6404 55.7033 36.0264C55.7107 36.4125 55.7144 36.7651 55.7144 37.0843V40.837H54.1777ZM65.1073 44.1776L67.3122 39.7791L64.5283 34.1557H66.2766L67.5794 36.8282C67.6982 37.0657 67.8059 37.2959 67.9024 37.5186C67.9989 37.7339 68.0917 37.9714 68.1808 38.2313C68.2698 37.9714 68.3626 37.7339 68.4591 37.5186C68.5631 37.2959 68.6744 37.0657 68.7932 36.8282L70.1183 34.1557H71.7887L66.7999 44.1776H65.1073ZM75.812 40.837V30.815H80.9566V32.2515H77.4155V34.0888H80.1771V35.4919H77.4155V39.3671H80.9566V40.837H75.812ZM81.4711 40.837L83.7984 37.3181L81.6938 34.1557H83.4643L84.1102 35.1801C84.2215 35.3509 84.3292 35.529 84.4331 35.7146C84.5445 35.9002 84.6447 36.0932 84.7338 36.2937C84.8303 36.0932 84.9305 35.9039 85.0344 35.7258C85.1458 35.5402 85.2571 35.3583 85.3685 35.1801L86.0032 34.1557H87.7515L85.6469 37.3181L87.9742 40.837H86.1814L85.2794 39.3782C85.1755 39.2149 85.0716 39.0516 84.9676 38.8883C84.8711 38.7175 84.782 38.5468 84.7004 38.376C84.6187 38.5468 84.5259 38.7175 84.422 38.8883C84.3255 39.0516 84.229 39.2149 84.1325 39.3782L83.2193 40.837H81.4711ZM88.7577 44.1776V34.1557H90.1496V34.924C90.4317 34.6419 90.7621 34.4229 91.1407 34.267C91.5193 34.1037 91.9276 34.022 92.3656 34.022C92.8258 34.022 93.2564 34.1111 93.6573 34.2893C94.0656 34.4675 94.4219 34.7161 94.7263 35.0354C95.0381 35.3546 95.2794 35.7258 95.4501 36.1489C95.6209 36.5646 95.7062 37.0138 95.7062 37.4963C95.7062 37.9714 95.6209 38.4206 95.4501 38.8437C95.2794 39.2594 95.0381 39.6269 94.7263 39.9461C94.4219 40.2654 94.0656 40.5178 93.6573 40.7033C93.2564 40.8815 92.8258 40.9706 92.3656 40.9706C91.9721 40.9706 91.6009 40.9038 91.252 40.7702C90.9105 40.6365 90.6025 40.4547 90.3278 40.2245V44.1776H88.7577ZM92.1763 39.5675C92.5549 39.5675 92.8964 39.4747 93.2007 39.2891C93.5051 39.1035 93.7464 38.8549 93.9246 38.5431C94.1101 38.2313 94.2029 37.8823 94.2029 37.4963C94.2029 37.1103 94.1101 36.7614 93.9246 36.4496C93.7464 36.1378 93.5051 35.8891 93.2007 35.7035C92.8964 35.5105 92.5549 35.414 92.1763 35.414C91.8051 35.414 91.4636 35.5105 91.1518 35.7035C90.8474 35.8891 90.6025 36.1378 90.4169 36.4496C90.2387 36.7614 90.1496 37.1103 90.1496 37.4963C90.1496 37.8749 90.2387 38.2238 90.4169 38.5431C90.6025 38.8549 90.8474 39.1035 91.1518 39.2891C91.4562 39.4747 91.7977 39.5675 92.1763 39.5675ZM100.113 41.0151C99.5636 41.0151 99.0625 40.9261 98.6096 40.7479C98.1568 40.5623 97.7633 40.3099 97.4293 39.9907C97.0952 39.6715 96.8354 39.2928 96.6498 38.8549C96.4716 38.4169 96.3825 37.9417 96.3825 37.4295C96.3825 36.9395 96.4716 36.4867 96.6498 36.071C96.8279 35.6478 97.0729 35.2803 97.3847 34.9686C97.7039 34.6568 98.0714 34.4155 98.4871 34.2447C98.9029 34.0666 99.352 33.9775 99.8345 33.9775C100.473 33.9775 101.048 34.126 101.561 34.4229C102.08 34.7199 102.488 35.1245 102.785 35.6367C103.09 36.1415 103.242 36.7168 103.242 37.3627V37.9417H99.0216C98.836 37.9417 98.6504 37.9343 98.4649 37.9195C98.2793 37.8972 98.0937 37.8712 97.9081 37.8415C97.9675 38.1904 98.0974 38.5022 98.2978 38.7769C98.4983 39.0442 98.7544 39.2557 99.0662 39.4116C99.3854 39.5675 99.7417 39.6455 100.135 39.6455C100.558 39.6455 100.944 39.5564 101.293 39.3782C101.65 39.1926 101.935 38.9551 102.151 38.6655L102.529 40.2245C102.203 40.4769 101.831 40.6737 101.416 40.8147C101 40.9483 100.566 41.0151 100.113 41.0151ZM97.8747 36.8505C98.0603 36.8133 98.2496 36.7874 98.4426 36.7725C98.6356 36.7502 98.8286 36.7391 99.0216 36.7391H100.725C100.911 36.7391 101.089 36.7465 101.26 36.7614C101.431 36.7762 101.598 36.7948 101.761 36.8171C101.694 36.5127 101.568 36.2454 101.382 36.0153C101.197 35.7852 100.97 35.607 100.703 35.4808C100.436 35.3472 100.143 35.2803 99.8234 35.2803C99.5042 35.2803 99.2109 35.3509 98.9437 35.4919C98.6764 35.6255 98.45 35.8111 98.2644 36.0487C98.0788 36.2788 97.9489 36.5461 97.8747 36.8505ZM104.261 40.837V34.1557H105.686V35.0576C105.931 34.7087 106.236 34.4415 106.599 34.2559C106.971 34.0703 107.372 33.9775 107.802 33.9775C108.277 33.9775 108.719 34.0926 109.127 34.3227C109.536 34.5528 109.866 34.8869 110.118 35.3249C110.371 35.7629 110.497 36.2937 110.497 36.9173V40.837H108.927V37.1288C108.927 36.676 108.793 36.2788 108.526 35.9373C108.259 35.5884 107.876 35.414 107.379 35.414C107.112 35.414 106.859 35.4771 106.622 35.6033C106.392 35.7295 106.202 35.9151 106.054 36.1601C105.905 36.405 105.831 36.7168 105.831 37.0954V40.837H104.261ZM113.808 41.0151C113.415 41.0151 113.003 40.9446 112.572 40.8036C112.149 40.6625 111.8 40.4547 111.525 40.18L111.937 38.6099C112.145 38.9291 112.427 39.1963 112.784 39.4116C113.14 39.6269 113.511 39.7346 113.897 39.7346C114.216 39.7346 114.45 39.664 114.599 39.523C114.747 39.3819 114.821 39.2112 114.821 39.0107C114.821 38.7806 114.744 38.6136 114.588 38.5097C114.432 38.4057 114.283 38.3278 114.142 38.2758L113.218 37.9195C113.032 37.8452 112.813 37.7413 112.561 37.6077C112.316 37.474 112.101 37.281 111.915 37.0286C111.737 36.7762 111.648 36.4459 111.648 36.0376C111.648 35.6664 111.737 35.3249 111.915 35.0131C112.101 34.7013 112.361 34.4526 112.695 34.267C113.036 34.074 113.444 33.9775 113.92 33.9775C114.328 33.9775 114.725 34.048 115.111 34.1891C115.504 34.3301 115.813 34.5194 116.035 34.757L115.646 36.2937C115.504 36.0784 115.334 35.8928 115.133 35.7369C114.94 35.581 114.736 35.4622 114.521 35.3806C114.306 35.2989 114.09 35.2581 113.875 35.2581C113.6 35.2581 113.392 35.3249 113.251 35.4585C113.11 35.5921 113.04 35.7443 113.04 35.9151C113.04 36.0561 113.088 36.186 113.185 36.3048C113.281 36.4162 113.437 36.5127 113.652 36.5943L114.532 36.9284C114.74 37.0026 114.974 37.1103 115.233 37.2513C115.501 37.3924 115.731 37.5928 115.924 37.8527C116.117 38.1125 116.213 38.4651 116.213 38.9105C116.213 39.3263 116.109 39.6937 115.902 40.0129C115.701 40.3247 115.419 40.5697 115.055 40.7479C114.699 40.9261 114.283 41.0151 113.808 41.0151ZM120.651 41.0151C120.102 41.0151 119.601 40.9261 119.148 40.7479C118.695 40.5623 118.301 40.3099 117.967 39.9907C117.633 39.6715 117.374 39.2928 117.188 38.8549C117.01 38.4169 116.921 37.9417 116.921 37.4295C116.921 36.9395 117.01 36.4867 117.188 36.071C117.366 35.6478 117.611 35.2803 117.923 34.9686C118.242 34.6568 118.61 34.4155 119.025 34.2447C119.441 34.0666 119.89 33.9775 120.373 33.9775C121.011 33.9775 121.586 34.126 122.099 34.4229C122.618 34.7199 123.027 35.1245 123.324 35.6367C123.628 36.1415 123.78 36.7168 123.78 37.3627V37.9417H119.56C119.374 37.9417 119.189 37.9343 119.003 37.9195C118.817 37.8972 118.632 37.8712 118.446 37.8415C118.506 38.1904 118.636 38.5022 118.836 38.7769C119.036 39.0442 119.293 39.2557 119.604 39.4116C119.924 39.5675 120.28 39.6455 120.673 39.6455C121.096 39.6455 121.483 39.5564 121.831 39.3782C122.188 39.1926 122.474 38.9551 122.689 38.6655L123.067 40.2245C122.741 40.4769 122.37 40.6737 121.954 40.8147C121.538 40.9483 121.104 41.0151 120.651 41.0151ZM118.413 36.8505C118.598 36.8133 118.788 36.7874 118.981 36.7725C119.174 36.7502 119.367 36.7391 119.56 36.7391H121.264C121.449 36.7391 121.627 36.7465 121.798 36.7614C121.969 36.7762 122.136 36.7948 122.299 36.8171C122.232 36.5127 122.106 36.2454 121.921 36.0153C121.735 35.7852 121.508 35.607 121.241 35.4808C120.974 35.3472 120.681 35.2803 120.362 35.2803C120.042 35.2803 119.749 35.3509 119.482 35.4919C119.215 35.6255 118.988 35.8111 118.803 36.0487C118.617 36.2788 118.487 36.5461 118.413 36.8505ZM126.759 41.0151C126.366 41.0151 125.954 40.9446 125.523 40.8036C125.1 40.6625 124.751 40.4547 124.476 40.18L124.888 38.6099C125.096 38.9291 125.378 39.1963 125.735 39.4116C126.091 39.6269 126.462 39.7346 126.848 39.7346C127.167 39.7346 127.401 39.664 127.55 39.523C127.698 39.3819 127.772 39.2112 127.772 39.0107C127.772 38.7806 127.694 38.6136 127.539 38.5097C127.383 38.4057 127.234 38.3278 127.093 38.2758L126.169 37.9195C125.983 37.8452 125.764 37.7413 125.512 37.6077C125.267 37.474 125.052 37.281 124.866 37.0286C124.688 36.7762 124.599 36.4459 124.599 36.0376C124.599 35.6664 124.688 35.3249 124.866 35.0131C125.052 34.7013 125.311 34.4526 125.645 34.267C125.987 34.074 126.395 33.9775 126.87 33.9775C127.279 33.9775 127.676 34.048 128.062 34.1891C128.455 34.3301 128.763 34.5194 128.986 34.757L128.596 36.2937C128.455 36.0784 128.285 35.8928 128.084 35.7369C127.891 35.581 127.687 35.4622 127.472 35.3806C127.256 35.2989 127.041 35.2581 126.826 35.2581C126.551 35.2581 126.343 35.3249 126.202 35.4585C126.061 35.5921 125.991 35.7443 125.991 35.9151C125.991 36.0561 126.039 36.186 126.135 36.3048C126.232 36.4162 126.388 36.5127 126.603 36.5943L127.483 36.9284C127.691 37.0026 127.925 37.1103 128.184 37.2513C128.452 37.3924 128.682 37.5928 128.875 37.8527C129.068 38.1125 129.164 38.4651 129.164 38.9105C129.164 39.3263 129.06 39.6937 128.853 40.0129C128.652 40.3247 128.37 40.5697 128.006 40.7479C127.65 40.9261 127.234 41.0151 126.759 41.0151Z" fill="#404040"/>
<rect x="213.465" y="29.0957" width="74.8859" height="22.751" rx="4.4002" stroke="#282A74" stroke-width="0.5"/>
<path d="M223.33 43.2832V37.7711H224.249V42.4747H226.031V43.2832H223.33ZM228.26 43.3567C228.003 43.3567 227.764 43.3077 227.544 43.2097C227.323 43.1076 227.129 42.9688 226.962 42.7932C226.794 42.6176 226.662 42.4155 226.564 42.1869C226.47 41.9541 226.423 41.7071 226.423 41.4458C226.423 41.1804 226.47 40.9334 226.564 40.7047C226.662 40.472 226.794 40.2678 226.962 40.0923C227.129 39.9167 227.323 39.7799 227.544 39.6819C227.764 39.5839 228.003 39.5349 228.26 39.5349C228.505 39.5349 228.732 39.5799 228.94 39.6697C229.148 39.7554 229.328 39.8779 229.479 40.0372V39.6084H230.244V43.2832H229.479V42.8544C229.328 43.0096 229.148 43.1321 228.94 43.2219C228.732 43.3117 228.505 43.3567 228.26 43.3567ZM228.364 42.585C228.572 42.585 228.76 42.5339 228.928 42.4318C229.095 42.3298 229.228 42.193 229.326 42.0215C229.428 41.85 229.479 41.6581 229.479 41.4458C229.479 41.2335 229.428 41.0416 229.326 40.8701C229.228 40.6986 229.095 40.5618 228.928 40.4597C228.76 40.3536 228.572 40.3005 228.364 40.3005C228.16 40.3005 227.972 40.3536 227.801 40.4597C227.633 40.5618 227.499 40.6986 227.397 40.8701C227.299 41.0416 227.25 41.2335 227.25 41.4458C227.25 41.654 227.299 41.8459 227.397 42.0215C227.499 42.193 227.633 42.3298 227.801 42.4318C227.968 42.5339 228.156 42.585 228.364 42.585ZM232.312 43.3811C232.095 43.3811 231.869 43.3424 231.632 43.2648C231.399 43.1872 231.207 43.0729 231.056 42.9218L231.283 42.0582C231.397 42.2338 231.552 42.3808 231.748 42.4992C231.944 42.6176 232.148 42.6768 232.361 42.6768C232.536 42.6768 232.665 42.638 232.747 42.5605C232.828 42.4829 232.869 42.389 232.869 42.2787C232.869 42.1522 232.826 42.0603 232.74 42.0031C232.655 41.946 232.573 41.9031 232.495 41.8745L231.987 41.6785C231.885 41.6377 231.765 41.5805 231.626 41.507C231.491 41.4335 231.373 41.3274 231.27 41.1886C231.172 41.0497 231.123 40.868 231.123 40.6435C231.123 40.4393 231.172 40.2515 231.27 40.08C231.373 39.9085 231.515 39.7718 231.699 39.6697C231.887 39.5635 232.112 39.5104 232.373 39.5104C232.597 39.5104 232.816 39.5492 233.028 39.6268C233.245 39.7044 233.414 39.8085 233.537 39.9392L233.322 40.7843C233.245 40.6659 233.151 40.5639 233.04 40.4781C232.934 40.3924 232.822 40.327 232.704 40.2821C232.585 40.2372 232.467 40.2148 232.348 40.2148C232.197 40.2148 232.083 40.2515 232.005 40.325C231.928 40.3985 231.889 40.4822 231.889 40.5761C231.889 40.6537 231.916 40.7251 231.969 40.7905C232.022 40.8517 232.108 40.9048 232.226 40.9497L232.71 41.1334C232.824 41.1743 232.953 41.2335 233.096 41.3111C233.243 41.3886 233.369 41.4989 233.475 41.6418C233.581 41.7847 233.635 41.9786 233.635 42.2236C233.635 42.4523 233.577 42.6544 233.463 42.8299C233.353 43.0014 233.198 43.1362 232.998 43.2342C232.802 43.3322 232.573 43.3811 232.312 43.3811ZM234.849 43.2832V40.3066H234.09V39.6084H234.868V38.3835H235.694V39.6084H236.515V40.3066H235.713V43.2832H234.849ZM239.195 43.2832V37.5873H239.207L241.785 40.9803L244.315 37.5873H244.327V43.2832H243.445V41.2192C243.445 41.0436 243.447 40.8517 243.451 40.6435C243.459 40.4312 243.478 40.1882 243.506 39.9147C243.38 40.1351 243.257 40.327 243.139 40.4904C243.02 40.6496 242.912 40.7986 242.814 40.9375L241.767 42.3829L240.683 40.9375C240.585 40.8027 240.475 40.6496 240.352 40.4781C240.23 40.3066 240.107 40.1168 239.985 39.9085C240.013 40.1821 240.03 40.425 240.034 40.6374C240.038 40.8497 240.04 41.0436 240.04 41.2192V43.2832H239.195ZM247.244 43.3811C246.975 43.3811 246.722 43.3322 246.485 43.2342C246.248 43.1321 246.04 42.9933 245.86 42.8177C245.68 42.638 245.54 42.4318 245.438 42.1991C245.335 41.9664 245.284 41.7153 245.284 41.4458C245.284 41.1763 245.335 40.9252 245.438 40.6925C245.54 40.4597 245.68 40.2556 245.86 40.08C246.04 39.9004 246.248 39.7615 246.485 39.6636C246.722 39.5615 246.975 39.5104 247.244 39.5104C247.518 39.5104 247.773 39.5615 248.01 39.6636C248.247 39.7615 248.453 39.9004 248.628 40.08C248.808 40.2556 248.949 40.4597 249.051 40.6925C249.153 40.9252 249.204 41.1763 249.204 41.4458C249.204 41.7153 249.153 41.9664 249.051 42.1991C248.949 42.4318 248.808 42.638 248.628 42.8177C248.453 42.9933 248.247 43.1321 248.01 43.2342C247.773 43.3322 247.518 43.3811 247.244 43.3811ZM247.244 42.5911C247.457 42.5911 247.646 42.54 247.814 42.438C247.985 42.3318 248.122 42.193 248.224 42.0215C248.326 41.85 248.377 41.6581 248.377 41.4458C248.377 41.2335 248.326 41.0416 248.224 40.8701C248.122 40.6986 247.985 40.5618 247.814 40.4597C247.642 40.3536 247.452 40.3005 247.244 40.3005C247.036 40.3005 246.846 40.3536 246.675 40.4597C246.503 40.5618 246.366 40.6986 246.264 40.8701C246.166 41.0416 246.117 41.2335 246.117 41.4458C246.117 41.6581 246.166 41.85 246.264 42.0215C246.366 42.193 246.501 42.3318 246.669 42.438C246.84 42.54 247.032 42.5911 247.244 42.5911ZM249.975 43.2832V39.6084H250.759V40.1045C250.894 39.9126 251.061 39.7656 251.261 39.6636C251.465 39.5615 251.686 39.5104 251.922 39.5104C252.184 39.5104 252.427 39.5737 252.651 39.7003C252.876 39.8269 253.058 40.0106 253.196 40.2515C253.335 40.4924 253.405 40.7843 253.405 41.1273V43.2832H252.541V41.2437C252.541 40.9946 252.468 40.7762 252.321 40.5884C252.174 40.3965 251.963 40.3005 251.69 40.3005C251.543 40.3005 251.404 40.3352 251.273 40.4046C251.147 40.474 251.043 40.5761 250.961 40.7109C250.879 40.8456 250.838 41.0171 250.838 41.2253V43.2832H249.975ZM254.632 43.2832V40.3066H253.873V39.6084H254.651V38.3835H255.478V39.6084H256.298V40.3066H255.496V43.2832H254.632ZM256.96 43.2832V37.4036H257.823V40.0065C257.958 39.8432 258.117 39.7207 258.301 39.6391C258.489 39.5533 258.691 39.5104 258.907 39.5104C259.169 39.5104 259.412 39.5737 259.636 39.7003C259.861 39.8269 260.042 40.0106 260.181 40.2515C260.32 40.4924 260.389 40.7843 260.389 41.1273V43.2832H259.526V41.2437C259.526 41.0763 259.491 40.9211 259.422 40.7782C259.356 40.6353 259.26 40.521 259.134 40.4352C259.011 40.3454 258.858 40.3005 258.675 40.3005C258.528 40.3005 258.389 40.3352 258.258 40.4046C258.132 40.474 258.027 40.5761 257.946 40.7109C257.864 40.8456 257.823 41.0171 257.823 41.2253V43.2832H256.96Z" fill="#2E2E2E"/>
<path d="M281.107 39.7302L280.424 39.0769L278.201 41.1992L275.978 39.0769L275.295 39.7302L278.201 42.5106L281.107 39.7302Z" fill="#2E2E2E"/>
<path d="M151.479 83.7704C151.12 81.8155 152.427 79.9345 154.398 79.6707C167.085 77.9722 180.011 78.8214 192.362 82.1798C204.674 85.5273 216.124 91.2888 226.007 99.0913C227.59 100.341 227.724 102.668 226.359 104.156L210.949 120.957C209.647 122.376 207.463 122.5 205.936 121.332C199.469 116.389 192.045 112.723 184.085 110.559C176.135 108.397 167.831 107.782 159.653 108.736C157.713 108.963 155.881 107.696 155.528 105.775L151.479 83.7704Z" fill="#FFC145"/>
<path d="M231.217 108.291C232.618 106.97 234.817 106.99 236.13 108.394C243.529 116.296 249.42 125.415 253.52 135.328C257.597 145.187 259.832 155.657 260.13 166.253C260.185 168.223 258.559 169.803 256.589 169.78L233.223 169.511C231.253 169.488 229.687 167.871 229.592 165.902C229.268 159.179 227.784 152.548 225.194 146.284C222.611 140.04 218.972 134.265 214.432 129.192C213.087 127.689 213.109 125.369 214.578 123.983L231.217 108.291Z" fill="#EDC982"/>
<path d="M101.329 110.417C99.8202 109.079 99.7175 106.75 101.166 105.342C111.823 94.9896 124.929 87.2969 139.349 82.9321C141.212 82.3682 143.144 83.4784 143.671 85.3508L149.736 106.927C150.276 108.848 149.131 110.831 147.231 111.447C138.33 114.336 130.214 119.125 123.486 125.459C122.084 126.778 119.899 126.883 118.461 125.607L101.329 110.417Z" fill="#3A3C9F"/>
<path d="M77.6394 167.716C75.6687 167.693 74.0842 166.076 74.1905 164.108C75.1496 146.358 81.5318 129.272 92.5304 115.018C93.707 113.493 95.8966 113.262 97.4139 114.444L115.526 128.555C117.117 129.794 117.353 132.1 116.157 133.725C109.503 142.764 105.548 153.399 104.728 164.462C104.582 166.427 102.976 168.008 101.005 167.985L77.6394 167.716Z" fill="#282A74"/>
<path d="M137.419 154.876H126.531V152.531H137.419V154.876ZM134.343 148.776H126.479V146.491H134.343V148.776ZM130.769 143.905L131.01 150.367C131.04 151.035 130.93 151.614 130.678 152.101C130.432 152.584 129.997 152.981 129.374 153.292L127.383 152.531C127.63 152.496 127.818 152.368 127.949 152.146C128.08 151.925 128.168 151.664 128.213 151.362C128.258 151.056 128.276 150.764 128.266 150.488L128.039 143.905C128.004 142.885 128.198 142.028 128.62 141.334C129.047 140.635 129.628 140.11 130.362 139.758C131.096 139.401 131.908 139.223 132.797 139.223C133.561 139.223 134.245 139.338 134.848 139.57C135.456 139.801 135.967 140.123 136.379 140.535C136.796 140.947 137.1 141.424 137.291 141.967C137.487 142.51 137.55 143.096 137.48 143.724L134.863 143.505C134.898 143.048 134.823 142.674 134.637 142.382C134.456 142.085 134.205 141.869 133.883 141.734C133.566 141.593 133.227 141.522 132.865 141.522C132.493 141.522 132.146 141.608 131.825 141.779C131.508 141.95 131.252 142.211 131.055 142.563C130.864 142.915 130.769 143.362 130.769 143.905ZM151.115 139.434V154.876H148.317V142.156H148.227L144.615 144.463V141.899L148.453 139.434H151.115ZM160.319 155.17C159.077 155.17 158.011 154.856 157.122 154.227C156.237 153.594 155.556 152.682 155.078 151.49C154.606 150.294 154.37 148.854 154.37 147.17C154.375 145.486 154.613 144.053 155.086 142.872C155.563 141.686 156.245 140.781 157.129 140.158C158.019 139.534 159.082 139.223 160.319 139.223C161.555 139.223 162.618 139.534 163.508 140.158C164.398 140.781 165.079 141.686 165.551 142.872C166.029 144.058 166.268 145.491 166.268 147.17C166.268 148.859 166.029 150.302 165.551 151.498C165.079 152.689 164.398 153.599 163.508 154.227C162.623 154.856 161.56 155.17 160.319 155.17ZM160.319 152.81C161.284 152.81 162.045 152.335 162.603 151.385C163.166 150.43 163.448 149.025 163.448 147.17C163.448 145.943 163.32 144.913 163.063 144.079C162.807 143.244 162.445 142.616 161.977 142.194C161.51 141.766 160.957 141.553 160.319 141.553C159.359 141.553 158.6 142.03 158.042 142.985C157.484 143.935 157.202 145.33 157.197 147.17C157.192 148.401 157.315 149.437 157.567 150.276C157.823 151.116 158.185 151.749 158.652 152.177C159.12 152.599 159.675 152.81 160.319 152.81ZM174.056 155.17C172.815 155.17 171.749 154.856 170.859 154.227C169.974 153.594 169.293 152.682 168.816 151.49C168.343 150.294 168.107 148.854 168.107 147.17C168.112 145.486 168.351 144.053 168.823 142.872C169.301 141.686 169.982 140.781 170.867 140.158C171.756 139.534 172.82 139.223 174.056 139.223C175.293 139.223 176.356 139.534 177.246 140.158C178.135 140.781 178.816 141.686 179.289 142.872C179.766 144.058 180.005 145.491 180.005 147.17C180.005 148.859 179.766 150.302 179.289 151.498C178.816 152.689 178.135 153.599 177.246 154.227C176.361 154.856 175.298 155.17 174.056 155.17ZM174.056 152.81C175.021 152.81 175.783 152.335 176.341 151.385C176.904 150.43 177.185 149.025 177.185 147.17C177.185 145.943 177.057 144.913 176.801 144.079C176.544 143.244 176.182 142.616 175.715 142.194C175.247 141.766 174.695 141.553 174.056 141.553C173.096 141.553 172.337 142.03 171.779 142.985C171.221 143.935 170.94 145.33 170.935 147.17C170.93 148.401 171.053 149.437 171.304 150.276C171.56 151.116 171.922 151.749 172.39 152.177C172.857 152.599 173.413 152.81 174.056 152.81ZM187.794 155.17C186.552 155.17 185.486 154.856 184.597 154.227C183.712 153.594 183.031 152.682 182.553 151.49C182.081 150.294 181.844 148.854 181.844 147.17C181.849 145.486 182.088 144.053 182.561 142.872C183.038 141.686 183.719 140.781 184.604 140.158C185.494 139.534 186.557 139.223 187.794 139.223C189.03 139.223 190.093 139.534 190.983 140.158C191.873 140.781 192.554 141.686 193.026 142.872C193.504 144.058 193.743 145.491 193.743 147.17C193.743 148.859 193.504 150.302 193.026 151.498C192.554 152.689 191.873 153.599 190.983 154.227C190.098 154.856 189.035 155.17 187.794 155.17ZM187.794 152.81C188.759 152.81 189.52 152.335 190.078 151.385C190.641 150.43 190.923 149.025 190.923 147.17C190.923 145.943 190.794 144.913 190.538 144.079C190.282 143.244 189.92 142.616 189.452 142.194C188.985 141.766 188.432 141.553 187.794 141.553C186.833 141.553 186.074 142.03 185.516 142.985C184.958 143.935 184.677 145.33 184.672 147.17C184.667 148.401 184.79 149.437 185.041 150.276C185.298 151.116 185.66 151.749 186.127 152.177C186.595 152.599 187.15 152.81 187.794 152.81ZM201.531 155.17C200.289 155.17 199.224 154.856 198.334 154.227C197.449 153.594 196.768 152.682 196.291 151.49C195.818 150.294 195.582 148.854 195.582 147.17C195.587 145.486 195.826 144.053 196.298 142.872C196.776 141.686 197.457 140.781 198.342 140.158C199.231 139.534 200.294 139.223 201.531 139.223C202.768 139.223 203.831 139.534 204.72 140.158C205.61 140.781 206.291 141.686 206.764 142.872C207.241 144.058 207.48 145.491 207.48 147.17C207.48 148.859 207.241 150.302 206.764 151.498C206.291 152.689 205.61 153.599 204.72 154.227C203.836 154.856 202.773 155.17 201.531 155.17ZM201.531 152.81C202.496 152.81 203.258 152.335 203.816 151.385C204.379 150.43 204.66 149.025 204.66 147.17C204.66 145.943 204.532 144.913 204.276 144.079C204.019 143.244 203.657 142.616 203.19 142.194C202.722 141.766 202.169 141.553 201.531 141.553C200.571 141.553 199.812 142.03 199.254 142.985C198.696 143.935 198.414 145.33 198.409 147.17C198.404 148.401 198.528 149.437 198.779 150.276C199.035 151.116 199.397 151.749 199.865 152.177C200.332 152.599 200.888 152.81 201.531 152.81Z" fill="#2E2E2E"/>
<path d="M146.82 170.795V170.169H151.193V170.795H149.36V176H148.654V170.795H146.82ZM152.703 173.369V176H152.031V170.169H152.703V172.31H152.76C152.863 172.084 153.017 171.905 153.222 171.772C153.428 171.637 153.704 171.57 154.047 171.57C154.345 171.57 154.606 171.63 154.83 171.749C155.054 171.867 155.228 172.048 155.351 172.293C155.476 172.536 155.539 172.845 155.539 173.221V176H154.867V173.267C154.867 172.919 154.777 172.651 154.597 172.461C154.418 172.269 154.171 172.173 153.854 172.173C153.633 172.173 153.436 172.22 153.261 172.313C153.089 172.406 152.952 172.542 152.851 172.72C152.753 172.899 152.703 173.115 152.703 173.369ZM156.608 176V171.627H157.28V176H156.608ZM156.95 170.898C156.819 170.898 156.706 170.853 156.611 170.764C156.518 170.675 156.471 170.568 156.471 170.442C156.471 170.317 156.518 170.21 156.611 170.121C156.706 170.031 156.819 169.987 156.95 169.987C157.081 169.987 157.193 170.031 157.286 170.121C157.381 170.21 157.428 170.317 157.428 170.442C157.428 170.568 157.381 170.675 157.286 170.764C157.193 170.853 157.081 170.898 156.95 170.898ZM161.448 172.606L160.844 172.777C160.806 172.676 160.75 172.579 160.676 172.484C160.604 172.387 160.506 172.307 160.38 172.245C160.255 172.182 160.095 172.151 159.899 172.151C159.632 172.151 159.408 172.212 159.23 172.336C159.054 172.457 158.965 172.612 158.965 172.8C158.965 172.967 159.026 173.099 159.148 173.196C159.269 173.292 159.459 173.373 159.717 173.438L160.366 173.597C160.757 173.692 161.048 173.837 161.24 174.033C161.432 174.226 161.528 174.476 161.528 174.781C161.528 175.032 161.456 175.256 161.311 175.453C161.169 175.651 160.97 175.806 160.713 175.92C160.457 176.034 160.159 176.091 159.819 176.091C159.373 176.091 159.004 175.994 158.712 175.801C158.42 175.607 158.235 175.324 158.157 174.952L158.794 174.793C158.855 175.028 158.97 175.205 159.139 175.322C159.31 175.44 159.533 175.499 159.808 175.499C160.121 175.499 160.37 175.432 160.554 175.3C160.74 175.165 160.833 175.003 160.833 174.816C160.833 174.664 160.78 174.537 160.674 174.434C160.567 174.33 160.404 174.252 160.184 174.201L159.455 174.03C159.054 173.935 158.76 173.788 158.572 173.588C158.386 173.387 158.293 173.136 158.293 172.834C158.293 172.587 158.363 172.369 158.501 172.179C158.642 171.989 158.832 171.84 159.073 171.732C159.316 171.624 159.592 171.57 159.899 171.57C160.332 171.57 160.672 171.665 160.918 171.855C161.167 172.044 161.344 172.295 161.448 172.606ZM164.565 170.169H165.407L167.389 175.009H167.457L169.439 170.169H170.282V176H169.621V171.57H169.564L167.742 176H167.104L165.282 171.57H165.225V176H164.565V170.169ZM173.223 176.091C172.828 176.091 172.481 175.997 172.183 175.809C171.887 175.621 171.656 175.358 171.489 175.021C171.323 174.683 171.241 174.288 171.241 173.836C171.241 173.381 171.323 172.983 171.489 172.643C171.656 172.303 171.887 172.04 172.183 171.852C172.481 171.664 172.828 171.57 173.223 171.57C173.617 171.57 173.963 171.664 174.259 171.852C174.557 172.04 174.788 172.303 174.954 172.643C175.121 172.983 175.204 173.381 175.204 173.836C175.204 174.288 175.121 174.683 174.954 175.021C174.788 175.358 174.557 175.621 174.259 175.809C173.963 175.997 173.617 176.091 173.223 176.091ZM173.223 175.488C173.522 175.488 173.769 175.411 173.963 175.257C174.156 175.103 174.3 174.901 174.393 174.65C174.486 174.4 174.532 174.128 174.532 173.836C174.532 173.544 174.486 173.271 174.393 173.019C174.3 172.767 174.156 172.563 173.963 172.407C173.769 172.251 173.522 172.173 173.223 172.173C172.923 172.173 172.676 172.251 172.482 172.407C172.289 172.563 172.145 172.767 172.052 173.019C171.959 173.271 171.913 173.544 171.913 173.836C171.913 174.128 171.959 174.4 172.052 174.65C172.145 174.901 172.289 175.103 172.482 175.257C172.676 175.411 172.923 175.488 173.223 175.488ZM176.741 173.369V176H176.069V171.627H176.719V172.31H176.776C176.878 172.088 177.034 171.91 177.242 171.775C177.451 171.638 177.721 171.57 178.051 171.57C178.347 171.57 178.606 171.631 178.828 171.752C179.05 171.872 179.223 172.054 179.347 172.299C179.47 172.542 179.532 172.849 179.532 173.221V176H178.86V173.267C178.86 172.923 178.77 172.656 178.592 172.464C178.414 172.27 178.169 172.173 177.857 172.173C177.643 172.173 177.451 172.22 177.282 172.313C177.115 172.406 176.983 172.542 176.887 172.72C176.79 172.899 176.741 173.115 176.741 173.369ZM182.501 171.627V172.196H180.235V171.627H182.501ZM180.895 170.579H181.567V174.747C181.567 174.937 181.595 175.079 181.65 175.174C181.707 175.267 181.779 175.33 181.866 175.362C181.955 175.393 182.049 175.408 182.148 175.408C182.222 175.408 182.283 175.404 182.33 175.396C182.378 175.387 182.416 175.379 182.444 175.374L182.581 175.977C182.535 175.994 182.472 176.011 182.39 176.028C182.308 176.047 182.205 176.057 182.08 176.057C181.89 176.057 181.704 176.016 181.522 175.935C181.341 175.853 181.191 175.729 181.072 175.562C180.954 175.395 180.895 175.184 180.895 174.929V170.579ZM184.117 173.369V176H183.445V170.169H184.117V172.31H184.174C184.277 172.084 184.43 171.905 184.635 171.772C184.842 171.637 185.118 171.57 185.461 171.57C185.759 171.57 186.02 171.63 186.244 171.749C186.468 171.867 186.642 172.048 186.765 172.293C186.89 172.536 186.953 172.845 186.953 173.221V176H186.281V173.267C186.281 172.919 186.191 172.651 186.011 172.461C185.832 172.269 185.584 172.173 185.267 172.173C185.047 172.173 184.85 172.22 184.675 172.313C184.503 172.406 184.366 172.542 184.265 172.72C184.167 172.899 184.117 173.115 184.117 173.369Z" fill="#A1A1A1"/>
<defs>
<filter id="filter0_ddd_543_481" x="0" y="0" width="333" height="242" filterUnits="userSpaceOnUse" color-interpolation-filters="sRGB">
<feFlood flood-opacity="0" result="BackgroundImageFix"/>
<feColorMatrix in="SourceAlpha" type="matrix" values="0 0 0 0 0 0 0 0 0 0 0 0 0 0 0 0 0 0 127 0" result="hardAlpha"/>
<feOffset/>
<feGaussianBlur stdDeviation="0.5"/>
<feColorMatrix type="matrix" values="0 0 0 0 0 0 0 0 0 0 0 0 0 0 0 0 0 0 0.04 0"/>
<feBlend mode="normal" in2="BackgroundImageFix" result="effect1_dropShadow_543_481"/>
<feColorMatrix in="SourceAlpha" type="matrix" values="0 0 0 0 0 0 0 0 0 0 0 0 0 0 0 0 0 0 127 0" result="hardAlpha"/>
<feOffset dy="2"/>
<feGaussianBlur stdDeviation="3"/>
<feColorMatrix type="matrix" values="0 0 0 0 0 0 0 0 0 0 0 0 0 0 0 0 0 0 0.04 0"/>
<feBlend mode="normal" in2="effect1_dropShadow_543_481" result="effect2_dropShadow_543_481"/>
<feColorMatrix in="SourceAlpha" type="matrix" values="0 0 0 0 0 0 0 0 0 0 0 0 0 0 0 0 0 0 127 0" result="hardAlpha"/>
<feOffset dy="16"/>
<feGaussianBlur stdDeviation="12"/>
<feColorMatrix type="matrix" values="0 0 0 0 0 0 0 0 0 0 0 0 0 0 0 0 0 0 0.06 0"/>
<feBlend mode="normal" in2="effect2_dropShadow_543_481" result="effect3_dropShadow_543_481"/>
<feBlend mode="normal" in="SourceGraphic" in2="effect3_dropShadow_543_481" result="shape"/>
</filter>
</defs>
</svg>
