<svg width="334" height="298" viewBox="0 0 334 298" fill="none" xmlns="http://www.w3.org/2000/svg">
<g filter="url(#filter0_ddd_543_482)">
<rect x="24" y="8" width="285.426" height="249.748" rx="28" fill="white"/>
</g>
<path d="M51.9868 41.6385V31.2825H52.0091L56.6972 37.4516L61.2961 31.2825H61.3184V41.6385H59.7149V37.8859C59.7149 37.5667 59.7186 37.2177 59.726 36.8391C59.7409 36.4531 59.7743 36.0114 59.8262 35.514C59.5961 35.9149 59.3734 36.2638 59.1581 36.5608C58.9428 36.8503 58.7461 37.1212 58.5679 37.3736L56.6637 40.0016L54.6928 37.3736C54.5146 37.1287 54.3142 36.8503 54.0914 36.5385C53.8687 36.2267 53.646 35.8815 53.4233 35.5029C53.4753 36.0003 53.505 36.442 53.5124 36.828C53.5198 37.214 53.5235 37.5667 53.5235 37.8859V41.6385H51.9868ZM62.9165 44.9792L65.1213 40.5807L62.3374 34.9572H64.0857L65.3886 37.6298C65.5074 37.8673 65.615 38.0975 65.7115 38.3202C65.808 38.5355 65.9008 38.773 65.9899 39.0328C66.079 38.773 66.1718 38.5355 66.2683 38.3202C66.3722 38.0975 66.4836 37.8673 66.6023 37.6298L67.9275 34.9572H69.5978L64.6091 44.9792H62.9165ZM73.6211 41.6385V31.6166H78.7657V33.0531H75.2246V34.8904H78.4317V36.2935H75.2246V41.6385H73.6211ZM79.664 41.6385V34.9572H81.2341V41.6385H79.664ZM80.4547 33.866C80.2839 33.866 80.128 33.8251 79.987 33.7435C79.8533 33.6618 79.7457 33.5542 79.664 33.4205C79.5824 33.2795 79.5415 33.1236 79.5415 32.9528C79.5415 32.7747 79.5824 32.6188 79.664 32.4851C79.7457 32.3441 79.8533 32.2327 79.987 32.1511C80.128 32.0694 80.2839 32.0286 80.4547 32.0286C80.6328 32.0286 80.7887 32.0694 80.9223 32.1511C81.0634 32.2327 81.1748 32.3441 81.2564 32.4851C81.3381 32.6188 81.3789 32.7747 81.3789 32.9528C81.3789 33.1236 81.3381 33.2795 81.2564 33.4205C81.1748 33.5542 81.0634 33.6618 80.9223 33.7435C80.7887 33.8251 80.6328 33.866 80.4547 33.866ZM82.7303 41.6385V34.9572H84.1556V35.8592C84.4006 35.5103 84.705 35.243 85.0687 35.0575C85.4399 34.8719 85.8408 34.7791 86.2714 34.7791C86.7465 34.7791 87.1882 34.8941 87.5965 35.1243C88.0048 35.3544 88.3352 35.6885 88.5876 36.1265C88.84 36.5645 88.9662 37.0953 88.9662 37.7188V41.6385H87.3961V37.9304C87.3961 37.4776 87.2624 37.0804 86.9952 36.7389C86.7279 36.39 86.3456 36.2155 85.8482 36.2155C85.581 36.2155 85.3286 36.2787 85.091 36.4049C84.8609 36.5311 84.6716 36.7166 84.5231 36.9616C84.3746 37.2066 84.3004 37.5184 84.3004 37.897V41.6385H82.7303ZM93.2573 41.7722C92.7896 41.7722 92.3553 41.6831 91.9544 41.5049C91.5536 41.3193 91.2009 41.0669 90.8966 40.7477C90.5922 40.4285 90.3509 40.061 90.1728 39.6453C90.002 39.2221 89.9166 38.773 89.9166 38.2979C89.9166 37.8154 90.002 37.3662 90.1728 36.9505C90.3509 36.5273 90.5922 36.1562 90.8966 35.8369C91.2009 35.5177 91.5536 35.269 91.9544 35.0909C92.3553 34.9127 92.7896 34.8236 93.2573 34.8236C93.7027 34.8236 94.1147 34.9053 94.4933 35.0686C94.872 35.2245 95.1986 35.4472 95.4733 35.7367V34.9572H96.8652V41.6385H95.4733V40.8591C95.1986 41.1412 94.872 41.3639 94.4933 41.5272C94.1147 41.6905 93.7027 41.7722 93.2573 41.7722ZM93.4466 40.3691C93.8252 40.3691 94.1667 40.2763 94.4711 40.0907C94.7754 39.9051 95.0167 39.6564 95.1949 39.3446C95.3805 39.0328 95.4733 38.6839 95.4733 38.2979C95.4733 37.9119 95.3805 37.5629 95.1949 37.2512C95.0167 36.9394 94.7754 36.6907 94.4711 36.5051C94.1667 36.3121 93.8252 36.2155 93.4466 36.2155C93.0754 36.2155 92.7339 36.3121 92.4221 36.5051C92.1178 36.6907 91.8728 36.9394 91.6872 37.2512C91.509 37.5629 91.4199 37.9119 91.4199 38.2979C91.4199 38.6765 91.509 39.0254 91.6872 39.3446C91.8728 39.6564 92.1178 39.9051 92.4221 40.0907C92.7265 40.2763 93.068 40.3691 93.4466 40.3691ZM98.3433 41.6385V34.9572H99.7686V35.8592C100.014 35.5103 100.318 35.243 100.682 35.0575C101.053 34.8719 101.454 34.7791 101.884 34.7791C102.359 34.7791 102.801 34.8941 103.209 35.1243C103.618 35.3544 103.948 35.6885 104.201 36.1265C104.453 36.5645 104.579 37.0953 104.579 37.7188V41.6385H103.009V37.9304C103.009 37.4776 102.875 37.0804 102.608 36.7389C102.341 36.39 101.959 36.2155 101.461 36.2155C101.194 36.2155 100.942 36.2787 100.704 36.4049C100.474 36.5311 100.285 36.7166 100.136 36.9616C99.9876 37.2066 99.9134 37.5184 99.9134 37.897V41.6385H98.3433ZM109.104 41.8167C108.614 41.8167 108.15 41.7239 107.712 41.5383C107.282 41.3527 106.903 41.1003 106.576 40.7811C106.25 40.4619 105.994 40.0907 105.808 39.6676C105.622 39.237 105.53 38.7804 105.53 38.2979C105.53 37.8079 105.622 37.3514 105.808 36.9282C105.994 36.5051 106.25 36.1339 106.576 35.8147C106.903 35.488 107.282 35.2356 107.712 35.0575C108.15 34.8719 108.614 34.7791 109.104 34.7791C109.579 34.7791 110.025 34.8607 110.44 35.024C110.856 35.1799 111.224 35.4027 111.543 35.6922L111.109 37.4405C110.923 37.099 110.659 36.8094 110.318 36.5719C109.976 36.3343 109.583 36.2155 109.138 36.2155C108.752 36.2155 108.399 36.3083 108.08 36.4939C107.768 36.6795 107.519 36.9319 107.334 37.2512C107.155 37.5629 107.066 37.9119 107.066 38.2979C107.066 38.6765 107.155 39.0254 107.334 39.3446C107.519 39.6564 107.768 39.9088 108.08 40.1018C108.399 40.2874 108.752 40.3802 109.138 40.3802C109.583 40.3802 109.976 40.2615 110.318 40.0239C110.659 39.7863 110.923 39.4968 111.109 39.1553L111.543 40.8925C111.224 41.182 110.856 41.4084 110.44 41.5717C110.025 41.7351 109.579 41.8167 109.104 41.8167ZM115.563 41.8167C115.014 41.8167 114.513 41.7276 114.06 41.5495C113.607 41.3639 113.214 41.1115 112.88 40.7922C112.545 40.473 112.286 40.0944 112.1 39.6564C111.922 39.2184 111.833 38.7433 111.833 38.2311C111.833 37.7411 111.922 37.2883 112.1 36.8725C112.278 36.4494 112.523 36.0819 112.835 35.7701C113.154 35.4583 113.522 35.2171 113.937 35.0463C114.353 34.8682 114.802 34.7791 115.285 34.7791C115.923 34.7791 116.499 34.9275 117.011 35.2245C117.53 35.5214 117.939 35.926 118.236 36.4383C118.54 36.9431 118.692 37.5184 118.692 38.1643V38.7433H114.472C114.286 38.7433 114.101 38.7359 113.915 38.721C113.73 38.6988 113.544 38.6728 113.358 38.6431C113.418 38.992 113.548 39.3038 113.748 39.5785C113.949 39.8457 114.205 40.0573 114.516 40.2132C114.836 40.3691 115.192 40.447 115.585 40.447C116.009 40.447 116.395 40.358 116.744 40.1798C117.1 39.9942 117.386 39.7566 117.601 39.4671L117.98 41.0261C117.653 41.2785 117.282 41.4752 116.866 41.6163C116.45 41.7499 116.016 41.8167 115.563 41.8167ZM113.325 37.652C113.511 37.6149 113.7 37.5889 113.893 37.5741C114.086 37.5518 114.279 37.5407 114.472 37.5407H116.176C116.361 37.5407 116.539 37.5481 116.71 37.5629C116.881 37.5778 117.048 37.5964 117.211 37.6186C117.144 37.3143 117.018 37.047 116.833 36.8169C116.647 36.5867 116.421 36.4086 116.153 36.2824C115.886 36.1487 115.593 36.0819 115.274 36.0819C114.954 36.0819 114.661 36.1524 114.394 36.2935C114.127 36.4271 113.9 36.6127 113.715 36.8503C113.529 37.0804 113.399 37.3477 113.325 37.652Z" fill="#404040"/>
<rect x="214.267" y="28.2941" width="74.8859" height="22.751" rx="4.4002" stroke="#282A74" stroke-width="0.5"/>
<path d="M224.184 42.4813V35.9109H225.048V41.6876H227.932V42.4813H224.184ZM230.2 42.5872C229.889 42.5872 229.612 42.5313 229.371 42.4196C229.136 42.302 228.951 42.1433 228.816 41.9433C228.68 41.7376 228.613 41.5024 228.613 41.2378C228.613 40.985 228.666 40.7586 228.772 40.5587C228.883 40.3529 229.054 40.1795 229.283 40.0384C229.518 39.8973 229.812 39.7973 230.165 39.7385L231.929 39.4475V40.1354L230.35 40.4C230.045 40.4529 229.821 40.5499 229.68 40.691C229.545 40.8321 229.477 41.0056 229.477 41.2113C229.477 41.4054 229.554 41.5671 229.706 41.6964C229.865 41.8258 230.062 41.8904 230.297 41.8904C230.597 41.8904 230.856 41.8287 231.073 41.7052C231.297 41.5759 231.47 41.4024 231.594 41.1849C231.723 40.9673 231.788 40.7263 231.788 40.4617V39.2534C231.788 38.9947 231.691 38.786 231.497 38.6273C231.309 38.4626 231.059 38.3803 230.747 38.3803C230.477 38.3803 230.236 38.4509 230.024 38.592C229.818 38.7272 229.665 38.9095 229.565 39.1388L228.851 38.7684C228.939 38.5508 229.08 38.3568 229.274 38.1863C229.468 38.0099 229.695 37.8718 229.953 37.7718C230.212 37.6718 230.483 37.6219 230.765 37.6219C231.129 37.6219 231.45 37.6924 231.726 37.8335C232.002 37.9688 232.217 38.1599 232.37 38.4068C232.529 38.6479 232.608 38.9301 232.608 39.2534V42.4813H231.805V41.5818L231.955 41.6347C231.855 41.8228 231.72 41.9874 231.55 42.1286C231.379 42.2697 231.179 42.3814 230.95 42.4637C230.721 42.546 230.471 42.5872 230.2 42.5872ZM235.582 42.5872C235.106 42.5872 234.691 42.4696 234.338 42.2344C233.986 41.9992 233.736 41.6817 233.589 41.2819L234.241 40.9644C234.377 41.2466 234.562 41.47 234.797 41.6347C235.032 41.7993 235.294 41.8816 235.582 41.8816C235.841 41.8816 236.055 41.8199 236.226 41.6964C236.396 41.5729 236.481 41.4112 236.481 41.2113C236.481 41.0702 236.44 40.9585 236.358 40.8762C236.282 40.788 236.187 40.7204 236.076 40.6734C235.964 40.6204 235.861 40.5822 235.767 40.5587L235.053 40.3559C234.623 40.2324 234.309 40.056 234.109 39.8267C233.915 39.5974 233.818 39.3299 233.818 39.0241C233.818 38.7419 233.889 38.4979 234.03 38.2921C234.177 38.0805 234.374 37.9158 234.621 37.7983C234.873 37.6807 235.156 37.6219 235.467 37.6219C235.885 37.6219 236.258 37.7277 236.587 37.9394C236.922 38.151 237.16 38.4479 237.302 38.8301L236.631 39.1388C236.526 38.8919 236.367 38.6978 236.155 38.5567C235.943 38.4097 235.705 38.3362 235.441 38.3362C235.2 38.3362 235.009 38.398 234.867 38.5214C234.726 38.639 234.656 38.789 234.656 38.9712C234.656 39.1065 234.691 39.2182 234.762 39.3064C234.832 39.3887 234.917 39.4534 235.017 39.5004C235.117 39.5415 235.214 39.5768 235.308 39.6062L236.085 39.8355C236.473 39.9472 236.772 40.1207 236.984 40.3559C237.202 40.591 237.31 40.8733 237.31 41.2025C237.31 41.4671 237.237 41.7052 237.09 41.9169C236.943 42.1286 236.74 42.2932 236.481 42.4108C236.223 42.5284 235.923 42.5872 235.582 42.5872ZM240.316 42.5342C239.851 42.5342 239.492 42.402 239.24 42.1374C238.993 41.8728 238.869 41.4994 238.869 41.0173V38.5126H238.005V37.7277H238.181C238.393 37.7277 238.56 37.663 238.684 37.5337C238.807 37.4043 238.869 37.2338 238.869 37.0222V36.6341H239.689V37.7277H240.757V38.5126H239.689V40.9909C239.689 41.1496 239.713 41.2878 239.76 41.4054C239.813 41.523 239.898 41.617 240.016 41.6876C240.133 41.7523 240.289 41.7846 240.483 41.7846C240.524 41.7846 240.574 41.7817 240.633 41.7758C240.698 41.7699 240.757 41.764 240.809 41.7581V42.4813C240.733 42.499 240.648 42.5107 240.554 42.5166C240.46 42.5284 240.38 42.5342 240.316 42.5342ZM243.502 42.4813V35.9109H244.296L246.757 39.4122H246.351L248.794 35.9109H249.588V42.4813H248.715V37.0045L249.023 37.1015L246.58 40.5411H246.51L244.093 37.1015L244.367 37.0045V42.4813H243.502ZM253.208 42.5872C252.749 42.5872 252.335 42.4813 251.964 42.2697C251.594 42.0521 251.3 41.7552 251.082 41.3789C250.865 41.0026 250.756 40.5763 250.756 40.1001C250.756 39.6239 250.862 39.2005 251.073 38.8301C251.291 38.4597 251.585 38.1657 251.955 37.9482C252.326 37.7306 252.743 37.6219 253.208 37.6219C253.666 37.6219 254.081 37.7306 254.451 37.9482C254.822 38.1599 255.113 38.4509 255.324 38.8213C255.542 39.1917 255.651 39.618 255.651 40.1001C255.651 40.5822 255.539 41.0114 255.316 41.3877C255.092 41.7581 254.795 42.0521 254.425 42.2697C254.06 42.4813 253.655 42.5872 253.208 42.5872ZM253.208 41.7934C253.502 41.7934 253.766 41.7199 254.001 41.5729C254.242 41.4259 254.431 41.2231 254.566 40.9644C254.707 40.7057 254.778 40.4176 254.778 40.1001C254.778 39.7767 254.707 39.4916 254.566 39.2446C254.431 38.9918 254.242 38.7919 254.001 38.6449C253.766 38.492 253.502 38.4156 253.208 38.4156C252.908 38.4156 252.637 38.492 252.396 38.6449C252.161 38.7919 251.973 38.9918 251.832 39.2446C251.691 39.4916 251.62 39.7767 251.62 40.1001C251.62 40.4176 251.691 40.7057 251.832 40.9644C251.973 41.2231 252.161 41.4259 252.396 41.5729C252.637 41.7199 252.908 41.7934 253.208 41.7934ZM256.72 42.4813V37.7277H257.523V38.6537L257.391 38.5744C257.508 38.2745 257.696 38.0423 257.955 37.8776C258.22 37.7071 258.528 37.6219 258.881 37.6219C259.222 37.6219 259.525 37.6983 259.79 37.8512C260.06 38.004 260.272 38.2157 260.425 38.4862C260.583 38.7566 260.663 39.0624 260.663 39.4034V42.4813H259.834V39.668C259.834 39.4034 259.787 39.18 259.693 38.9977C259.598 38.8154 259.463 38.6743 259.287 38.5744C259.116 38.4685 258.919 38.4156 258.696 38.4156C258.473 38.4156 258.273 38.4685 258.096 38.5744C257.926 38.6743 257.79 38.8184 257.691 39.0065C257.591 39.1888 257.541 39.4093 257.541 39.668V42.4813H256.72ZM263.768 42.5342C263.303 42.5342 262.945 42.402 262.692 42.1374C262.445 41.8728 262.321 41.4994 262.321 41.0173V38.5126H261.457V37.7277H261.633C261.845 37.7277 262.013 37.663 262.136 37.5337C262.26 37.4043 262.321 37.2338 262.321 37.0222V36.6341H263.142V37.7277H264.209V38.5126H263.142V40.9909C263.142 41.1496 263.165 41.2878 263.212 41.4054C263.265 41.523 263.35 41.617 263.468 41.6876C263.585 41.7523 263.741 41.7846 263.935 41.7846C263.976 41.7846 264.026 41.7817 264.085 41.7758C264.15 41.7699 264.209 41.764 264.262 41.7581V42.4813C264.185 42.499 264.1 42.5107 264.006 42.5166C263.912 42.5284 263.832 42.5342 263.768 42.5342ZM265.333 42.4813V35.8051H266.153V38.6537L266.003 38.5744C266.121 38.2745 266.309 38.0423 266.568 37.8776C266.832 37.7071 267.141 37.6219 267.494 37.6219C267.835 37.6219 268.138 37.6983 268.402 37.8512C268.673 38.004 268.884 38.2157 269.037 38.4862C269.196 38.7566 269.275 39.0624 269.275 39.4034V42.4813H268.446V39.668C268.446 39.4034 268.396 39.18 268.296 38.9977C268.202 38.8154 268.07 38.6743 267.899 38.5744C267.729 38.4685 267.532 38.4156 267.309 38.4156C267.091 38.4156 266.894 38.4685 266.718 38.5744C266.541 38.6743 266.403 38.8184 266.303 39.0065C266.203 39.1888 266.153 39.4093 266.153 39.668V42.4813H265.333Z" fill="#2E2E2E"/>
<path d="M281.909 38.9287L281.226 38.2753L279.003 40.3976L276.779 38.2753L276.096 38.9287L279.003 41.709L281.909 38.9287Z" fill="#2E2E2E"/>
<line opacity="0.05" x1="61.203" y1="212.235" x2="286.977" y2="212.157" stroke="#2E2E2E" stroke-width="0.454552" stroke-dasharray="2.41 2.41"/>
<line opacity="0.05" x1="61.4863" y1="188.969" x2="286.977" y2="188.969" stroke="#2E2E2E" stroke-width="0.454552" stroke-dasharray="2.41 2.41"/>
<line opacity="0.05" x1="61.2029" y1="165.424" x2="286.977" y2="165.215" stroke="#2E2E2E" stroke-width="0.454552" stroke-dasharray="2.41 2.41"/>
<line opacity="0.05" x1="61.2031" y1="142.019" x2="286.977" y2="142.019" stroke="#2E2E2E" stroke-width="0.454552" stroke-dasharray="2.41 2.41"/>
<line opacity="0.05" x1="61.2033" y1="118.615" x2="286.977" y2="118.822" stroke="#2E2E2E" stroke-width="0.454552" stroke-dasharray="2.41 2.41"/>
<line opacity="0.05" x1="61.203" y1="95.209" x2="286.977" y2="95.0689" stroke="#2E2E2E" stroke-width="0.454552" stroke-dasharray="2.41 2.41"/>
<line opacity="0.05" x1="62.0047" y1="71.1565" x2="287.779" y2="71.0164" stroke="#2E2E2E" stroke-width="0.454552" stroke-dasharray="2.41 2.41"/>
<g opacity="0.7">
<path opacity="0.7" d="M44.7249 98.3827C44.648 98.3827 44.5881 98.3634 44.5453 98.3249C44.5026 98.2822 44.4812 98.2245 44.4812 98.1518C44.4812 98.0791 44.5026 98.0256 44.5453 97.9914C44.5881 97.9529 44.648 97.9337 44.7249 97.9337H45.5588V94.2969H45.8346L44.9045 94.9127C44.8489 94.9426 44.7955 94.9554 44.7442 94.9512C44.6971 94.9469 44.6565 94.9298 44.6223 94.8998C44.5924 94.8656 44.571 94.8271 44.5582 94.7844C44.5453 94.7373 44.5475 94.6903 44.5646 94.6433C44.5817 94.592 44.618 94.5492 44.6736 94.515L45.5588 93.9313C45.6144 93.8971 45.6678 93.8693 45.7191 93.8479C45.7704 93.8266 45.8217 93.8159 45.8731 93.8159C45.9329 93.8159 45.9821 93.8351 46.0206 93.8736C46.0633 93.9078 46.0847 93.9634 46.0847 94.0404V97.9337H46.8544C46.9314 97.9337 46.9912 97.9529 47.034 97.9914C47.0768 98.0256 47.0981 98.0791 47.0981 98.1518C47.0981 98.2287 47.0768 98.2865 47.034 98.3249C46.9912 98.3634 46.9314 98.3827 46.8544 98.3827H44.7249ZM49.5009 98.4404C48.9835 98.4404 48.5901 98.2416 48.3207 97.8439C48.0513 97.4462 47.9166 96.8711 47.9166 96.1185C47.9166 95.6139 47.9765 95.1906 48.0962 94.8485C48.216 94.5022 48.3934 94.2413 48.6286 94.066C48.8681 93.8907 49.1588 93.803 49.5009 93.803C50.0226 93.803 50.416 93.9997 50.6811 94.3931C50.9505 94.7822 51.0852 95.3552 51.0852 96.1121C51.0852 96.6167 51.0253 97.0421 50.9056 97.3885C50.7859 97.7349 50.6084 97.9978 50.3732 98.1774C50.138 98.3527 49.8473 98.4404 49.5009 98.4404ZM49.5009 97.985C49.8601 97.985 50.1252 97.8332 50.2963 97.5296C50.4716 97.2217 50.5592 96.7492 50.5592 96.1121C50.5592 95.4707 50.4716 95.0025 50.2963 94.7074C50.1252 94.4081 49.8601 94.2584 49.5009 94.2584C49.146 94.2584 48.8809 94.4081 48.7056 94.7074C48.5302 95.0067 48.4426 95.475 48.4426 96.1121C48.4426 96.7492 48.5302 97.2217 48.7056 97.5296C48.8809 97.8332 49.146 97.985 49.5009 97.985ZM53.3468 98.4404C52.8294 98.4404 52.436 98.2416 52.1667 97.8439C51.8973 97.4462 51.7626 96.8711 51.7626 96.1185C51.7626 95.6139 51.8224 95.1906 51.9422 94.8485C52.0619 94.5022 52.2393 94.2413 52.4745 94.066C52.714 93.8907 53.0048 93.803 53.3468 93.803C53.8685 93.803 54.2619 93.9997 54.527 94.3931C54.7964 94.7822 54.9311 95.3552 54.9311 96.1121C54.9311 96.6167 54.8713 97.0421 54.7515 97.3885C54.6318 97.7349 54.4543 97.9978 54.2192 98.1774C53.984 98.3527 53.6932 98.4404 53.3468 98.4404ZM53.3468 97.985C53.706 97.985 53.9711 97.8332 54.1422 97.5296C54.3175 97.2217 54.4052 96.7492 54.4052 96.1121C54.4052 95.4707 54.3175 95.0025 54.1422 94.7074C53.9711 94.4081 53.706 94.2584 53.3468 94.2584C52.9919 94.2584 52.7268 94.4081 52.5515 94.7074C52.3762 95.0067 52.2885 95.475 52.2885 96.1121C52.2885 96.7492 52.3762 97.2217 52.5515 97.5296C52.7268 97.8332 52.9919 97.985 53.3468 97.985Z" fill="#2E2E2E"/>
<path opacity="0.7" d="M45.5267 74.3298C45.4497 74.3298 45.3899 74.3106 45.3471 74.2721C45.3043 74.2293 45.283 74.1716 45.283 74.0989C45.283 74.0262 45.3043 73.9728 45.3471 73.9386C45.3899 73.9001 45.4497 73.8808 45.5267 73.8808H46.3605V70.2441H46.6363L45.7063 70.8598C45.6507 70.8897 45.5973 70.9026 45.5459 70.8983C45.4989 70.894 45.4583 70.8769 45.4241 70.847C45.3941 70.8128 45.3728 70.7743 45.3599 70.7315C45.3471 70.6845 45.3492 70.6374 45.3663 70.5904C45.3834 70.5391 45.4198 70.4963 45.4754 70.4621L46.3605 69.8785C46.4161 69.8442 46.4696 69.8164 46.5209 69.7951C46.5722 69.7737 46.6235 69.763 46.6748 69.763C46.7347 69.763 46.7839 69.7822 46.8223 69.8207C46.8651 69.8549 46.8865 69.9105 46.8865 69.9875V73.8808H47.6562C47.7331 73.8808 47.793 73.9001 47.8358 73.9386C47.8785 73.9728 47.8999 74.0262 47.8999 74.0989C47.8999 74.1759 47.8785 74.2336 47.8358 74.2721C47.793 74.3106 47.7331 74.3298 47.6562 74.3298H45.5267ZM49.2059 74.3298C49.1118 74.3298 49.0412 74.3084 48.9942 74.2657C48.9514 74.2186 48.9301 74.1566 48.9301 74.0797C48.9301 74.0326 48.9407 73.9877 48.9621 73.945C48.9878 73.8979 49.022 73.8509 49.0648 73.8039L50.5015 72.2645C50.7196 72.0293 50.8757 71.8134 50.9697 71.6167C51.0681 71.4157 51.1173 71.2126 51.1173 71.0073C51.1173 70.7508 51.0381 70.5562 50.8799 70.4236C50.726 70.2868 50.4994 70.2184 50.2 70.2184C50.0076 70.2184 49.8259 70.2483 49.6548 70.3082C49.4838 70.3681 49.3192 70.46 49.161 70.584C49.1054 70.6268 49.0541 70.646 49.007 70.6417C48.9643 70.6374 48.9258 70.6203 48.8916 70.5904C48.8574 70.5605 48.8338 70.522 48.821 70.475C48.8082 70.4279 48.8082 70.3809 48.821 70.3339C48.8381 70.2868 48.8723 70.2441 48.9236 70.2056C49.0904 70.0687 49.2914 69.9597 49.5266 69.8785C49.7617 69.7929 50.0012 69.7502 50.2449 69.7502C50.5485 69.7502 50.8051 69.7972 51.0146 69.8913C51.2242 69.9854 51.3824 70.1243 51.4893 70.3082C51.5962 70.4878 51.6496 70.708 51.6496 70.9688C51.6496 71.1484 51.6197 71.3259 51.5598 71.5012C51.5042 71.6723 51.4166 71.8476 51.2968 72.0272C51.1814 72.2068 51.0296 72.3928 50.8414 72.5852L49.4753 74.0284V73.8808H51.6368C51.718 73.8808 51.7779 73.9001 51.8164 73.9386C51.8591 73.9728 51.8805 74.0262 51.8805 74.0989C51.8805 74.1759 51.8591 74.2336 51.8164 74.2721C51.7779 74.3106 51.718 74.3298 51.6368 74.3298H49.2059ZM54.1486 74.3875C53.6312 74.3875 53.2378 74.1887 52.9684 73.791C52.699 73.3934 52.5643 72.8182 52.5643 72.0656C52.5643 71.5611 52.6242 71.1377 52.7439 70.7957C52.8636 70.4493 53.0411 70.1885 53.2763 70.0131C53.5157 69.8378 53.8065 69.7502 54.1486 69.7502C54.6703 69.7502 55.0637 69.9469 55.3288 70.3403C55.5982 70.7294 55.7329 71.3024 55.7329 72.0592C55.7329 72.5638 55.673 72.9893 55.5533 73.3356C55.4335 73.682 55.2561 73.945 55.0209 74.1246C54.7857 74.2999 54.495 74.3875 54.1486 74.3875ZM54.1486 73.9321C54.5078 73.9321 54.7729 73.7803 54.9439 73.4767C55.1193 73.1689 55.2069 72.6964 55.2069 72.0592C55.2069 71.4178 55.1193 70.9496 54.9439 70.6546C54.7729 70.3552 54.5078 70.2056 54.1486 70.2056C53.7937 70.2056 53.5286 70.3552 53.3533 70.6546C53.1779 70.9539 53.0903 71.4221 53.0903 72.0592C53.0903 72.6964 53.1779 73.1689 53.3533 73.4767C53.5286 73.7803 53.7937 73.9321 54.1486 73.9321Z" fill="#2E2E2E"/>
<path opacity="0.7" d="M49.5009 122.493C49.1631 122.493 48.8723 122.444 48.6286 122.346C48.3891 122.247 48.2053 122.104 48.077 121.916C47.953 121.728 47.891 121.501 47.891 121.236C47.891 121.027 47.9337 120.841 48.0193 120.678C48.1048 120.511 48.2245 120.377 48.3784 120.274C48.5324 120.171 48.7098 120.107 48.9108 120.082V120.178C48.6329 120.118 48.4105 119.988 48.2438 119.787C48.0813 119.581 48 119.34 48 119.062C48 118.805 48.0599 118.589 48.1796 118.414C48.3036 118.234 48.4789 118.098 48.7056 118.003C48.9322 117.905 49.1973 117.856 49.5009 117.856C49.8088 117.856 50.0739 117.905 50.2963 118.003C50.5229 118.098 50.6982 118.234 50.8222 118.414C50.9462 118.589 51.0082 118.805 51.0082 119.062C51.0082 119.246 50.9697 119.417 50.8928 119.575C50.8201 119.729 50.7153 119.857 50.5785 119.96C50.4416 120.062 50.2813 120.133 50.0974 120.171V120.082C50.401 120.124 50.6448 120.25 50.8286 120.46C51.0168 120.665 51.1108 120.924 51.1108 121.236C51.1108 121.501 51.0467 121.728 50.9184 121.916C50.7944 122.104 50.6105 122.247 50.3668 122.346C50.1273 122.444 49.8387 122.493 49.5009 122.493ZM49.5009 122.057C49.8644 122.057 50.138 121.987 50.3219 121.845C50.5101 121.704 50.6041 121.491 50.6041 121.204C50.6041 120.922 50.5101 120.712 50.3219 120.575C50.138 120.434 49.8644 120.364 49.5009 120.364C49.1417 120.364 48.8681 120.434 48.6799 120.575C48.4918 120.712 48.3977 120.922 48.3977 121.204C48.3977 121.491 48.4918 121.704 48.6799 121.845C48.8681 121.987 49.1417 122.057 49.5009 122.057ZM49.5009 119.928C49.7104 119.928 49.8879 119.896 50.0333 119.831C50.1829 119.763 50.2984 119.667 50.3796 119.543C50.4609 119.419 50.5015 119.273 50.5015 119.107C50.5015 118.85 50.4117 118.651 50.2321 118.51C50.0568 118.365 49.8131 118.292 49.5009 118.292C49.1888 118.292 48.945 118.365 48.7697 118.51C48.5944 118.651 48.5067 118.85 48.5067 119.107C48.5067 119.363 48.5944 119.564 48.7697 119.71C48.945 119.855 49.1888 119.928 49.5009 119.928ZM53.3468 122.493C52.8294 122.493 52.436 122.294 52.1667 121.897C51.8973 121.499 51.7626 120.924 51.7626 120.171C51.7626 119.667 51.8224 119.243 51.9422 118.901C52.0619 118.555 52.2393 118.294 52.4745 118.119C52.714 117.944 53.0048 117.856 53.3468 117.856C53.8685 117.856 54.2619 118.053 54.527 118.446C54.7964 118.835 54.9311 119.408 54.9311 120.165C54.9311 120.67 54.8713 121.095 54.7515 121.441C54.6318 121.788 54.4543 122.051 54.2192 122.23C53.984 122.406 53.6932 122.493 53.3468 122.493ZM53.3468 122.038C53.706 122.038 53.9711 121.886 54.1422 121.582C54.3175 121.275 54.4052 120.802 54.4052 120.165C54.4052 119.524 54.3175 119.055 54.1422 118.76C53.9711 118.461 53.706 118.311 53.3468 118.311C52.9919 118.311 52.7268 118.461 52.5515 118.76C52.3762 119.06 52.2885 119.528 52.2885 120.165C52.2885 120.802 52.3762 121.275 52.5515 121.582C52.7268 121.886 52.9919 122.038 53.3468 122.038Z" fill="#2E2E2E"/>
<path opacity="0.7" d="M49.6548 145.744C49.2999 145.744 48.9963 145.659 48.7441 145.488C48.496 145.312 48.3079 145.06 48.1796 144.731C48.0513 144.401 47.9872 144.004 47.9872 143.538C47.9872 143.144 48.0278 142.798 48.1091 142.499C48.1903 142.199 48.31 141.947 48.4682 141.742C48.6265 141.532 48.8189 141.374 49.0455 141.267C49.2721 141.16 49.5287 141.107 49.8152 141.107C50.0119 141.107 50.2129 141.145 50.4181 141.222C50.6276 141.299 50.8115 141.408 50.9697 141.549C51.0168 141.584 51.0446 141.626 51.0531 141.678C51.0659 141.725 51.0659 141.772 51.0531 141.819C51.0403 141.862 51.0168 141.898 50.9826 141.928C50.9526 141.958 50.9141 141.975 50.8671 141.979C50.8201 141.979 50.7709 141.96 50.7196 141.921C50.5742 141.797 50.4245 141.71 50.2706 141.658C50.1167 141.603 49.9606 141.575 49.8024 141.575C49.5244 141.575 49.2871 141.643 49.0904 141.78C48.898 141.917 48.7505 142.124 48.6478 142.402C48.5495 142.676 48.5003 143.02 48.5003 143.435V144.032H48.4426C48.4682 143.788 48.5388 143.578 48.6543 143.403C48.774 143.223 48.9258 143.087 49.1097 142.993C49.2935 142.898 49.5009 142.851 49.7318 142.851C49.9969 142.851 50.2321 142.911 50.4374 143.031C50.6426 143.151 50.803 143.32 50.9184 143.538C51.0339 143.752 51.0916 143.997 51.0916 144.275C51.0916 144.558 51.0317 144.81 50.912 145.032C50.7923 145.255 50.6234 145.43 50.4053 145.558C50.1872 145.682 49.9371 145.744 49.6548 145.744ZM49.6228 145.295C49.8109 145.295 49.9777 145.255 50.1231 145.173C50.2685 145.088 50.3818 144.97 50.463 144.821C50.5443 144.667 50.5849 144.491 50.5849 144.295C50.5849 144.098 50.5443 143.925 50.463 143.775C50.3818 143.625 50.2685 143.508 50.1231 143.422C49.9777 143.337 49.8109 143.294 49.6228 143.294C49.4346 143.294 49.2679 143.337 49.1225 143.422C48.9771 143.508 48.8638 143.625 48.7825 143.775C48.7013 143.925 48.6607 144.098 48.6607 144.295C48.6607 144.491 48.7013 144.667 48.7825 144.821C48.8638 144.97 48.9771 145.088 49.1225 145.173C49.2679 145.255 49.4346 145.295 49.6228 145.295ZM53.3468 145.744C52.8294 145.744 52.436 145.545 52.1667 145.148C51.8973 144.75 51.7626 144.175 51.7626 143.422C51.7626 142.918 51.8224 142.494 51.9422 142.152C52.0619 141.806 52.2393 141.545 52.4745 141.37C52.714 141.194 53.0048 141.107 53.3468 141.107C53.8685 141.107 54.2619 141.303 54.527 141.697C54.7964 142.086 54.9311 142.659 54.9311 143.416C54.9311 143.92 54.8713 144.346 54.7515 144.692C54.6318 145.039 54.4543 145.302 54.2192 145.481C53.984 145.656 53.6932 145.744 53.3468 145.744ZM53.3468 145.289C53.706 145.289 53.9711 145.137 54.1422 144.833C54.3175 144.525 54.4052 144.053 54.4052 143.416C54.4052 142.774 54.3175 142.306 54.1422 142.011C53.9711 141.712 53.706 141.562 53.3468 141.562C52.9919 141.562 52.7268 141.712 52.5515 142.011C52.3762 142.31 52.2885 142.779 52.2885 143.416C52.2885 144.053 52.3762 144.525 52.5515 144.833C52.7268 145.137 52.9919 145.289 53.3468 145.289Z" fill="#2E2E2E"/>
<path opacity="0.7" d="M50.2578 168.982C50.1765 168.982 50.1124 168.959 50.0653 168.912C50.0183 168.865 49.9948 168.798 49.9948 168.713V167.969H48.154C48.0684 167.969 48 167.95 47.9487 167.911C47.9017 167.868 47.8782 167.808 47.8782 167.731C47.8782 167.684 47.8888 167.637 47.9102 167.59C47.9316 167.539 47.9701 167.475 48.0257 167.398L49.982 164.55C50.0204 164.49 50.0632 164.445 50.1102 164.415C50.1573 164.385 50.2129 164.37 50.277 164.37C50.3454 164.37 50.4032 164.392 50.4502 164.435C50.5015 164.477 50.5272 164.546 50.5272 164.64V167.52H50.9954C51.0766 167.52 51.1386 167.539 51.1814 167.578C51.2242 167.616 51.2455 167.672 51.2455 167.744C51.2455 167.817 51.2242 167.873 51.1814 167.911C51.1386 167.95 51.0766 167.969 50.9954 167.969H50.5272V168.713C50.5272 168.798 50.5036 168.865 50.4566 168.912C50.4096 168.959 50.3433 168.982 50.2578 168.982ZM49.9948 167.52V165.031H50.1487L48.3528 167.661V167.52H49.9948ZM53.3468 168.995C52.8294 168.995 52.436 168.796 52.1667 168.399C51.8973 168.001 51.7626 167.426 51.7626 166.673C51.7626 166.169 51.8224 165.745 51.9422 165.403C52.0619 165.057 52.2393 164.796 52.4745 164.621C52.714 164.445 53.0048 164.358 53.3468 164.358C53.8685 164.358 54.2619 164.554 54.527 164.948C54.7964 165.337 54.9311 165.91 54.9311 166.667C54.9311 167.171 54.8713 167.597 54.7515 167.943C54.6318 168.289 54.4543 168.552 54.2192 168.732C53.984 168.907 53.6932 168.995 53.3468 168.995ZM53.3468 168.54C53.706 168.54 53.9711 168.388 54.1422 168.084C54.3175 167.776 54.4052 167.304 54.4052 166.667C54.4052 166.025 54.3175 165.557 54.1422 165.262C53.9711 164.963 53.706 164.813 53.3468 164.813C52.9919 164.813 52.7268 164.963 52.5515 165.262C52.3762 165.561 52.2885 166.03 52.2885 166.667C52.2885 167.304 52.3762 167.776 52.5515 168.084C52.7268 168.388 52.9919 168.54 53.3468 168.54Z" fill="#2E2E2E"/>
<path opacity="0.7" d="M48.4041 192.188C48.31 192.188 48.2395 192.167 48.1924 192.124C48.1497 192.077 48.1283 192.015 48.1283 191.938C48.1283 191.891 48.139 191.846 48.1604 191.803C48.186 191.756 48.2202 191.709 48.263 191.662L49.6997 190.123C49.9178 189.888 50.0739 189.672 50.168 189.475C50.2663 189.274 50.3155 189.071 50.3155 188.866C50.3155 188.609 50.2364 188.415 50.0782 188.282C49.9242 188.145 49.6976 188.077 49.3983 188.077C49.2059 188.077 49.0241 188.107 48.8531 188.167C48.682 188.226 48.5174 188.318 48.3592 188.442C48.3036 188.485 48.2523 188.504 48.2053 188.5C48.1625 188.496 48.124 188.479 48.0898 188.449C48.0556 188.419 48.0321 188.38 48.0193 188.333C48.0064 188.286 48.0064 188.239 48.0193 188.192C48.0364 188.145 48.0706 188.102 48.1219 188.064C48.2887 187.927 48.4896 187.818 48.7248 187.737C48.96 187.651 49.1994 187.609 49.4432 187.609C49.7468 187.609 50.0033 187.656 50.2129 187.75C50.4224 187.844 50.5806 187.983 50.6875 188.167C50.7944 188.346 50.8479 188.566 50.8479 188.827C50.8479 189.007 50.8179 189.184 50.7581 189.36C50.7025 189.531 50.6148 189.706 50.4951 189.886C50.3796 190.065 50.2278 190.251 50.0397 190.444L48.6735 191.887V191.739H50.835C50.9163 191.739 50.9761 191.758 51.0146 191.797C51.0574 191.831 51.0788 191.885 51.0788 191.957C51.0788 192.034 51.0574 192.092 51.0146 192.13C50.9761 192.169 50.9163 192.188 50.835 192.188H48.4041ZM53.3468 192.246C52.8294 192.246 52.436 192.047 52.1667 191.649C51.8973 191.252 51.7626 190.677 51.7626 189.924C51.7626 189.419 51.8224 188.996 51.9422 188.654C52.0619 188.308 52.2393 188.047 52.4745 187.872C52.714 187.696 53.0048 187.609 53.3468 187.609C53.8685 187.609 54.2619 187.805 54.527 188.199C54.7964 188.588 54.9311 189.161 54.9311 189.918C54.9311 190.422 54.8713 190.848 54.7515 191.194C54.6318 191.54 54.4543 191.803 54.2192 191.983C53.984 192.158 53.6932 192.246 53.3468 192.246ZM53.3468 191.79C53.706 191.79 53.9711 191.639 54.1422 191.335C54.3175 191.027 54.4052 190.555 54.4052 189.918C54.4052 189.276 54.3175 188.808 54.1422 188.513C53.9711 188.214 53.706 188.064 53.3468 188.064C52.9919 188.064 52.7268 188.214 52.5515 188.513C52.3762 188.812 52.2885 189.28 52.2885 189.918C52.2885 190.555 52.3762 191.027 52.5515 191.335C52.7268 191.639 52.9919 191.79 53.3468 191.79Z" fill="#2E2E2E"/>
<path opacity="0.7" d="M52.5451 215.497C52.0277 215.497 51.6343 215.298 51.3649 214.901C51.0955 214.503 50.9608 213.928 50.9608 213.175C50.9608 212.671 51.0207 212.247 51.1404 211.905C51.2601 211.559 51.4376 211.298 51.6728 211.123C51.9122 210.947 52.203 210.86 52.5451 210.86C53.0668 210.86 53.4602 211.057 53.7253 211.45C53.9947 211.839 54.1294 212.412 54.1294 213.169C54.1294 213.673 54.0695 214.099 53.9498 214.445C53.83 214.792 53.6526 215.055 53.4174 215.234C53.1822 215.41 52.8914 215.497 52.5451 215.497ZM52.5451 215.042C52.9043 215.042 53.1694 214.89 53.3404 214.586C53.5157 214.279 53.6034 213.806 53.6034 213.169C53.6034 212.527 53.5157 212.059 53.3404 211.764C53.1694 211.465 52.9043 211.315 52.5451 211.315C52.1902 211.315 51.9251 211.465 51.7497 211.764C51.5744 212.064 51.4868 212.532 51.4868 213.169C51.4868 213.806 51.5744 214.279 51.7497 214.586C51.9251 214.89 52.1902 215.042 52.5451 215.042Z" fill="#2E2E2E"/>
</g>
<g filter="url(#filter1_d_543_482)">
<path d="M61.4863 149.537L64.164 153.277C66.8574 156.876 72.2911 164.565 77.6152 170.052C82.9549 175.748 88.2633 179.243 93.744 171.904C99.0681 164.565 104.392 145.693 109.873 145.798C115.181 145.693 120.521 164.565 125.845 170.052C131.279 175.748 136.65 168.06 141.974 171.904C147.392 175.748 152.779 190.426 158.103 184.939C163.49 179.243 168.908 153.382 174.232 155.129C179.603 156.876 185.036 170.516 190.361 185.298C195.7 200.221 201.009 200.221 206.489 190.89C212.558 181.958 215.52 178.465 222.046 173.545C228.93 169.031 233.266 175.748 238.59 168.164C244.024 160.721 249.395 138.354 254.719 134.615C260.137 131.015 265.524 145.693 270.848 147.685C276.235 149.537 281.653 138.354 284.315 132.763L286.977 127.171" stroke="#282A74" stroke-width="1.81821" stroke-linecap="round"/>
</g>
<g filter="url(#filter2_d_543_482)">
<ellipse cx="109.361" cy="145.455" rx="3.24063" ry="3.21246" fill="white"/>
<path d="M111.92 145.455C111.92 146.847 110.78 147.986 109.361 147.986C107.942 147.986 106.802 146.847 106.802 145.455C106.802 144.063 107.942 142.925 109.361 142.925C110.78 142.925 111.92 144.063 111.92 145.455Z" stroke="#282A74" stroke-width="1.36366"/>
</g>
<g filter="url(#filter3_d_543_482)">
<ellipse cx="174.284" cy="154.73" rx="3.24063" ry="3.21246" fill="white"/>
<path d="M176.842 154.73C176.842 156.122 175.702 157.261 174.284 157.261C172.865 157.261 171.725 156.122 171.725 154.73C171.725 153.338 172.865 152.199 174.284 152.199C175.702 152.199 176.842 153.338 176.842 154.73Z" stroke="#282A74" stroke-width="1.36366"/>
</g>
<g filter="url(#filter4_d_543_482)">
<ellipse cx="256.017" cy="133.862" rx="3.24063" ry="3.21246" fill="white"/>
<path d="M258.576 133.862C258.576 135.254 257.436 136.392 256.017 136.392C254.598 136.392 253.458 135.254 253.458 133.862C253.458 132.47 254.598 131.331 256.017 131.331C257.436 131.331 258.576 132.47 258.576 133.862Z" stroke="#282A74" stroke-width="1.36366"/>
</g>
<g filter="url(#filter5_d_543_482)">
<ellipse cx="140.083" cy="170.96" rx="3.24063" ry="3.21246" fill="white"/>
<path d="M142.642 170.96C142.642 172.352 141.502 173.491 140.083 173.491C138.665 173.491 137.525 172.352 137.525 170.96C137.525 169.568 138.665 168.43 140.083 168.43C141.502 168.43 142.642 169.568 142.642 170.96Z" stroke="#282A74" stroke-width="1.36366"/>
</g>
<g filter="url(#filter6_d_543_482)">
<ellipse cx="222.976" cy="172.7" rx="3.24063" ry="3.21246" fill="white"/>
<path d="M225.535 172.7C225.535 174.092 224.395 175.23 222.976 175.23C221.557 175.23 220.417 174.092 220.417 172.7C220.417 171.308 221.557 170.169 222.976 170.169C224.395 170.169 225.535 171.308 225.535 172.7Z" stroke="#282A74" stroke-width="1.36366"/>
</g>
<defs>
<filter id="filter0_ddd_543_482" x="0" y="0" width="333.426" height="297.748" filterUnits="userSpaceOnUse" color-interpolation-filters="sRGB">
<feFlood flood-opacity="0" result="BackgroundImageFix"/>
<feColorMatrix in="SourceAlpha" type="matrix" values="0 0 0 0 0 0 0 0 0 0 0 0 0 0 0 0 0 0 127 0" result="hardAlpha"/>
<feOffset/>
<feGaussianBlur stdDeviation="0.5"/>
<feColorMatrix type="matrix" values="0 0 0 0 0 0 0 0 0 0 0 0 0 0 0 0 0 0 0.04 0"/>
<feBlend mode="normal" in2="BackgroundImageFix" result="effect1_dropShadow_543_482"/>
<feColorMatrix in="SourceAlpha" type="matrix" values="0 0 0 0 0 0 0 0 0 0 0 0 0 0 0 0 0 0 127 0" result="hardAlpha"/>
<feOffset dy="2"/>
<feGaussianBlur stdDeviation="3"/>
<feColorMatrix type="matrix" values="0 0 0 0 0 0 0 0 0 0 0 0 0 0 0 0 0 0 0.04 0"/>
<feBlend mode="normal" in2="effect1_dropShadow_543_482" result="effect2_dropShadow_543_482"/>
<feColorMatrix in="SourceAlpha" type="matrix" values="0 0 0 0 0 0 0 0 0 0 0 0 0 0 0 0 0 0 127 0" result="hardAlpha"/>
<feOffset dy="16"/>
<feGaussianBlur stdDeviation="12"/>
<feColorMatrix type="matrix" values="0 0 0 0 0 0 0 0 0 0 0 0 0 0 0 0 0 0 0.06 0"/>
<feBlend mode="normal" in2="effect2_dropShadow_543_482" result="effect3_dropShadow_543_482"/>
<feBlend mode="normal" in="SourceGraphic" in2="effect3_dropShadow_543_482" result="shape"/>
</filter>
<filter id="filter1_d_543_482" x="58.7589" y="126.262" width="230.946" height="75.5953" filterUnits="userSpaceOnUse" color-interpolation-filters="sRGB">
<feFlood flood-opacity="0" result="BackgroundImageFix"/>
<feColorMatrix in="SourceAlpha" type="matrix" values="0 0 0 0 0 0 0 0 0 0 0 0 0 0 0 0 0 0 127 0" result="hardAlpha"/>
<feOffset dy="1.81821"/>
<feGaussianBlur stdDeviation="0.909105"/>
<feColorMatrix type="matrix" values="0 0 0 0 0.156863 0 0 0 0 0.635294 0 0 0 0 0.388235 0 0 0 0.18 0"/>
<feBlend mode="normal" in2="BackgroundImageFix" result="effect1_dropShadow_543_482"/>
<feBlend mode="normal" in="SourceGraphic" in2="effect1_dropShadow_543_482" result="shape"/>
</filter>
<filter id="filter2_d_543_482" x="104.302" y="142.243" width="10.1179" height="10.0613" filterUnits="userSpaceOnUse" color-interpolation-filters="sRGB">
<feFlood flood-opacity="0" result="BackgroundImageFix"/>
<feColorMatrix in="SourceAlpha" type="matrix" values="0 0 0 0 0 0 0 0 0 0 0 0 0 0 0 0 0 0 127 0" result="hardAlpha"/>
<feOffset dy="1.81821"/>
<feGaussianBlur stdDeviation="0.909105"/>
<feColorMatrix type="matrix" values="0 0 0 0 0.156863 0 0 0 0 0.635294 0 0 0 0 0.388235 0 0 0 0.03 0"/>
<feBlend mode="normal" in2="BackgroundImageFix" result="effect1_dropShadow_543_482"/>
<feBlend mode="normal" in="SourceGraphic" in2="effect1_dropShadow_543_482" result="shape"/>
</filter>
<filter id="filter3_d_543_482" x="169.225" y="151.518" width="10.1179" height="10.0613" filterUnits="userSpaceOnUse" color-interpolation-filters="sRGB">
<feFlood flood-opacity="0" result="BackgroundImageFix"/>
<feColorMatrix in="SourceAlpha" type="matrix" values="0 0 0 0 0 0 0 0 0 0 0 0 0 0 0 0 0 0 127 0" result="hardAlpha"/>
<feOffset dy="1.81821"/>
<feGaussianBlur stdDeviation="0.909105"/>
<feColorMatrix type="matrix" values="0 0 0 0 0.156863 0 0 0 0 0.635294 0 0 0 0 0.388235 0 0 0 0.03 0"/>
<feBlend mode="normal" in2="BackgroundImageFix" result="effect1_dropShadow_543_482"/>
<feBlend mode="normal" in="SourceGraphic" in2="effect1_dropShadow_543_482" result="shape"/>
</filter>
<filter id="filter4_d_543_482" x="250.958" y="130.649" width="10.1179" height="10.0613" filterUnits="userSpaceOnUse" color-interpolation-filters="sRGB">
<feFlood flood-opacity="0" result="BackgroundImageFix"/>
<feColorMatrix in="SourceAlpha" type="matrix" values="0 0 0 0 0 0 0 0 0 0 0 0 0 0 0 0 0 0 127 0" result="hardAlpha"/>
<feOffset dy="1.81821"/>
<feGaussianBlur stdDeviation="0.909105"/>
<feColorMatrix type="matrix" values="0 0 0 0 0.156863 0 0 0 0 0.635294 0 0 0 0 0.388235 0 0 0 0.03 0"/>
<feBlend mode="normal" in2="BackgroundImageFix" result="effect1_dropShadow_543_482"/>
<feBlend mode="normal" in="SourceGraphic" in2="effect1_dropShadow_543_482" result="shape"/>
</filter>
<filter id="filter5_d_543_482" x="135.025" y="167.748" width="10.1179" height="10.0613" filterUnits="userSpaceOnUse" color-interpolation-filters="sRGB">
<feFlood flood-opacity="0" result="BackgroundImageFix"/>
<feColorMatrix in="SourceAlpha" type="matrix" values="0 0 0 0 0 0 0 0 0 0 0 0 0 0 0 0 0 0 127 0" result="hardAlpha"/>
<feOffset dy="1.81821"/>
<feGaussianBlur stdDeviation="0.909105"/>
<feColorMatrix type="matrix" values="0 0 0 0 0.156863 0 0 0 0 0.635294 0 0 0 0 0.388235 0 0 0 0.12 0"/>
<feBlend mode="normal" in2="BackgroundImageFix" result="effect1_dropShadow_543_482"/>
<feBlend mode="normal" in="SourceGraphic" in2="effect1_dropShadow_543_482" result="shape"/>
</filter>
<filter id="filter6_d_543_482" x="217.917" y="169.487" width="10.1179" height="10.0613" filterUnits="userSpaceOnUse" color-interpolation-filters="sRGB">
<feFlood flood-opacity="0" result="BackgroundImageFix"/>
<feColorMatrix in="SourceAlpha" type="matrix" values="0 0 0 0 0 0 0 0 0 0 0 0 0 0 0 0 0 0 127 0" result="hardAlpha"/>
<feOffset dy="1.81821"/>
<feGaussianBlur stdDeviation="0.909105"/>
<feColorMatrix type="matrix" values="0 0 0 0 0.156863 0 0 0 0 0.635294 0 0 0 0 0.388235 0 0 0 0.03 0"/>
<feBlend mode="normal" in2="BackgroundImageFix" result="effect1_dropShadow_543_482"/>
<feBlend mode="normal" in="SourceGraphic" in2="effect1_dropShadow_543_482" result="shape"/>
</filter>
</defs>
</svg>
