<svg width="36" height="61" viewBox="0 0 36 61" fill="none" xmlns="http://www.w3.org/2000/svg">
<path d="M35.4223 30.4925C35.4223 37.992 35.4223 45.4915 35.4223 52.991C35.4223 57.5462 31.9684 61 27.4208 61C20.9477 61 14.4671 61 7.99398 61C3.43884 61 0 57.5462 0 52.9835C0 37.9845 0 22.978 0 7.979C0 3.46131 3.46131 0 7.97151 0C14.4671 0 20.9627 0 27.4582 0C31.9684 0 35.4148 3.46131 35.4148 7.98649C35.4148 15.486 35.4148 22.9855 35.4148 30.485L35.4223 30.4925ZM1.99288 47.1847H33.4069V9.86699H1.99288V47.1847ZM1.98538 49.2151C1.98538 50.691 1.90297 52.107 2.00037 53.5155C2.22513 56.6396 4.66003 58.9921 7.78421 59.0146C14.3997 59.0671 21.0226 59.0596 27.6455 59.0146C30.2528 58.9996 32.5004 57.254 33.1896 54.8266C33.7066 52.9835 33.3769 51.0956 33.4668 49.2076H1.98538V49.2151ZM1.99288 7.82916H33.4219C33.4219 4.6001 30.8147 2.01535 27.5107 1.9704C25.5852 1.94043 23.6598 1.9704 21.7343 1.9704C17.1642 1.9704 12.5941 1.95542 8.02395 1.9704C4.64505 1.98538 1.9704 4.58511 1.99288 7.82916Z" fill="#282A74"/>
<path d="M17.7344 51.1705C19.3527 51.1705 20.6563 52.4741 20.6638 54.0924C20.6638 55.7556 19.3677 57.0667 17.7269 57.0667C16.0787 57.0667 14.7676 55.7631 14.7676 54.1149C14.7676 52.4667 16.0787 51.1705 17.7419 51.1705H17.7344ZM17.7344 55.0963C18.2439 55.0814 18.7084 54.6019 18.6934 54.0924C18.6784 53.583 18.1989 53.1185 17.697 53.1334C17.1875 53.1484 16.723 53.6354 16.738 54.1374C16.753 54.6468 17.2325 55.1113 17.7344 55.0963Z" fill="#282A74"/>
<path d="M17.6583 5.9037C16.7368 5.9037 15.8228 5.9037 14.9012 5.9037C14.182 5.9037 13.77 5.52161 13.7774 4.89977C13.7849 4.3079 14.197 3.9408 14.8788 3.9408C16.7593 3.9408 18.6398 3.9408 20.5203 3.9408C21.2395 3.9408 21.6516 4.32289 21.6441 4.93723C21.6366 5.5291 21.2245 5.88872 20.5427 5.89621C19.5838 5.9037 18.6248 5.89621 17.6658 5.89621L17.6583 5.9037Z" fill="#282A74"/>
</svg>
